<svg width="32" height="32" viewBox="0 0 32 32" fill="none" xmlns="http://www.w3.org/2000/svg">
<path d="M30.9333 30.9333L22.4 22.4M13.8667 26.6666C12.1857 26.6666 10.5213 26.3355 8.9683 25.6923C7.41534 25.049 6.00427 24.1062 4.81568 22.9176C3.62709 21.729 2.68425 20.3179 2.04099 18.765C1.39773 17.212 1.06665 15.5475 1.06665 13.8666C1.06665 12.1857 1.39773 10.5212 2.04099 8.96827C2.68425 7.4153 3.62709 6.00424 4.81568 4.81565C6.00427 3.62706 7.41534 2.68422 8.9683 2.04096C10.5213 1.3977 12.1857 1.06662 13.8667 1.06662C17.2614 1.06662 20.5172 2.41519 22.9176 4.81565C25.3181 7.21612 26.6667 10.4718 26.6667 13.8666C26.6667 17.2614 25.3181 20.5171 22.9176 22.9176C20.5172 25.3181 17.2614 26.6666 13.8667 26.6666Z" stroke="#000000" stroke-width="2.13333"/>
</svg>
